<?xml version="1.0" encoding="utf-8"?>
<svg version="1.1" xmlns:xlink="http://www.w3.org/1999/xlink" width="37px" height="36px" xmlns="http://www.w3.org/2000/svg">
  <g transform="matrix(1 0 0 1 -76 -143 )">
    <path d="M 21.3665364583333 9.2109375  C 21.5110677083333 9.3515625  21.5833333333333 9.53124999999999  21 9.75  L 21 20.25  C 21.5833333333333 20.46875  21.5110677083333 20.6484375  21.3665364583333 20.7890625  C 21.2220052083333 20.9296875  21.0373263888889 21  20.8125 21  L 13.1041666666667 21  C 12.8793402777778 21  12.6946614583333 20.9296875  12.5501302083333 20.7890625  C 12.4055989583333 20.6484375  12.3333333333333 20.46875  12.3333333333333 20.25  L 12.3333333333333 18.75  C 12.3333333333333 18.53125  12.4055989583333 18.3515625  12.5501302083333 18.2109375  C 12.6946614583333 18.0703125  12.8793402777778 18  13.1041666666667 18  L 18.5 18  L 18.5 9.75  C 18.5 9.53124999999999  18.572265625 9.3515625  18.716796875 9.2109375  C 18.861328125 9.0703125  19.0460069444444 9  19.2708333333333 9  L 20.8125 9  C 21.0373263888889 9  21.2220052083333 9.0703125  21.3665364583333 9.2109375  Z M 29.845703125 24.3984375  C 31.0180121527778 22.4453125  31.6041666666667 20.3125  31.6041666666667 18  C 31.6041666666667 15.6875  31.0180121527778 13.5546875  29.845703125 11.6015625  C 28.6733940972222 9.6484375  27.0835503472222 8.1015625  25.076171875 6.9609375  C 23.0687934027778 5.8203125  20.8767361111111 5.25  18.5 5.25  C 16.1232638888889 5.25  13.9312065972222 5.8203125  11.923828125 6.9609375  C 9.91644965277778 8.1015625  8.32660590277778 9.6484375  7.154296875 11.6015625  C 5.98198784722222 13.5546875  5.39583333333333 15.6875  5.39583333333333 18  C 5.39583333333333 20.3125  5.98198784722222 22.4453125  7.154296875 24.3984375  C 8.32660590277778 26.3515625  9.91644965277778 27.8984375  11.923828125 29.0390625  C 13.9312065972222 30.1796875  16.1232638888889 30.75  18.5 30.75  C 20.8767361111111 30.75  23.0687934027778 30.1796875  25.076171875 29.0390625  C 27.0835503472222 27.8984375  28.6733940972222 26.3515625  29.845703125 24.3984375  Z M 34.5188802083333 8.96484375  C 36.1729600694444 11.72265625  37 14.734375  37 18  C 37 21.265625  36.1729600694444 24.27734375  34.5188802083333 27.03515625  C 32.8648003472222 29.79296875  30.6205512152778 31.9765625  27.7861328125 33.5859375  C 24.9517144097222 35.1953125  21.8563368055556 36  18.5 36  C 15.1436631944444 36  12.0482855902778 35.1953125  9.2138671875 33.5859375  C 6.37944878472222 31.9765625  4.13519965277778 29.79296875  2.48111979166667 27.03515625  C 0.827039930555555 24.27734375  0 21.265625  0 18  C 0 14.734375  0.827039930555555 11.72265625  2.48111979166667 8.96484375  C 4.13519965277778 6.20703125  6.37944878472222 4.0234375  9.2138671875 2.4140625  C 12.0482855902778 0.804687499999997  15.1436631944444 0  18.5 0  C 21.8563368055556 0  24.9517144097222 0.804687499999997  27.7861328125 2.4140625  C 30.6205512152778 4.0234375  32.8648003472222 6.20703125  34.5188802083333 8.96484375  Z " fill-rule="nonzero" fill="#000000" stroke="none" transform="matrix(1 0 0 1 76 143 )" />
  </g>
</svg>